<svg width="19" height="19" viewBox="0 0 19 19" fill="none" xmlns="http://www.w3.org/2000/svg">
<path d="M16.7 18.575L8.275 10.175C8.175 10.075 8.10433 9.96667 8.063 9.85C8.021 9.73333 8 9.60833 8 9.475C8 9.34167 8.021 9.21667 8.063 9.1C8.10433 8.98333 8.175 8.875 8.275 8.775L16.7 0.35C16.9333 0.116667 17.225 0 17.575 0C17.925 0 18.225 0.125 18.475 0.375C18.725 0.625 18.85 0.916667 18.85 1.25C18.85 1.58333 18.725 1.875 18.475 2.125L11.125 9.475L18.475 16.825C18.7083 17.0583 18.825 17.3457 18.825 17.687C18.825 18.029 18.7 18.325 18.45 18.575C18.2 18.825 17.9083 18.95 17.575 18.95C17.2417 18.95 16.95 18.825 16.7 18.575Z" fill="black"/>
<path d="M2.14961 0.37495L10.5746 8.77495C10.6746 8.87495 10.7453 8.98328 10.7866 9.09995C10.8286 9.21662 10.8496 9.34162 10.8496 9.47495C10.8496 9.60828 10.8286 9.73328 10.7866 9.84995C10.7453 9.96662 10.6746 10.075 10.5746 10.175L2.14961 18.6C1.91628 18.8333 1.62461 18.95 1.27461 18.95C0.924609 18.95 0.62461 18.825 0.37461 18.575C0.12461 18.325 -0.000389973 18.0333 -0.000389944 17.7C-0.000389914 17.3666 0.12461 17.075 0.37461 16.825L7.72461 9.47495L0.374611 2.12495C0.141278 1.89162 0.0246111 1.60428 0.0246111 1.26295C0.0246111 0.920951 0.149611 0.624949 0.399611 0.374949C0.649611 0.12495 0.941278 -5.04573e-05 1.27461 -5.04281e-05C1.60794 -5.0399e-05 1.89961 0.12495 2.14961 0.37495Z" fill="black"/>
</svg>
